solid ASCII
  facet normal -1.000000e+00 0.000000e+00 0.000000e+00
    outer loop
      vertex   -3.750000e+00 -2.247600e+01 1.000000e+01
      vertex   -3.750000e+00 2.247600e+01 1.000000e+01
      vertex   -3.750000e+00 -2.247600e+01 -1.000000e+01
    endloop
  endfacet
  facet normal -1.000000e+00 0.000000e+00 0.000000e+00
    outer loop
      vertex   -3.750000e+00 -2.247600e+01 -1.000000e+01
      vertex   -3.750000e+00 2.247600e+01 1.000000e+01
      vertex   -3.750000e+00 2.247600e+01 -1.000000e+01
    endloop
  endfacet
  facet normal -0.000000e+00 -1.000000e+00 -0.000000e+00
    outer loop
      vertex   3.750000e+00 -2.247600e+01 1.000000e+01
      vertex   -3.750000e+00 -2.247600e+01 1.000000e+01
      vertex   3.750000e+00 -2.247600e+01 -1.000000e+01
    endloop
  endfacet
  facet normal 0.000000e+00 -1.000000e+00 0.000000e+00
    outer loop
      vertex   3.750000e+00 -2.247600e+01 -1.000000e+01
      vertex   -3.750000e+00 -2.247600e+01 1.000000e+01
      vertex   -3.750000e+00 -2.247600e+01 -1.000000e+01
    endloop
  endfacet
  facet normal 1.000000e+00 0.000000e+00 0.000000e+00
    outer loop
      vertex   3.750000e+00 2.247600e+01 1.000000e+01
      vertex   3.750000e+00 -2.247600e+01 1.000000e+01
      vertex   3.750000e+00 2.247600e+01 -1.000000e+01
    endloop
  endfacet
  facet normal 1.000000e+00 0.000000e+00 0.000000e+00
    outer loop
      vertex   3.750000e+00 2.247600e+01 -1.000000e+01
      vertex   3.750000e+00 -2.247600e+01 1.000000e+01
      vertex   3.750000e+00 -2.247600e+01 -1.000000e+01
    endloop
  endfacet
  facet normal -0.000000e+00 1.000000e+00 0.000000e+00
    outer loop
      vertex   -3.750000e+00 2.247600e+01 1.000000e+01
      vertex   3.750000e+00 2.247600e+01 1.000000e+01
      vertex   -3.750000e+00 2.247600e+01 -1.000000e+01
    endloop
  endfacet
  facet normal 0.000000e+00 1.000000e+00 0.000000e+00
    outer loop
      vertex   -3.750000e+00 2.247600e+01 -1.000000e+01
      vertex   3.750000e+00 2.247600e+01 1.000000e+01
      vertex   3.750000e+00 2.247600e+01 -1.000000e+01
    endloop
  endfacet
  facet normal 0.000000e+00 0.000000e+00 1.000000e+00
    outer loop
      vertex   3.750000e+00 2.247600e+01 1.000000e+01
      vertex   -3.750000e+00 2.247600e+01 1.000000e+01
      vertex   3.750000e+00 -2.247600e+01 1.000000e+01
    endloop
  endfacet
  facet normal 0.000000e+00 0.000000e+00 1.000000e+00
    outer loop
      vertex   3.750000e+00 -2.247600e+01 1.000000e+01
      vertex   -3.750000e+00 2.247600e+01 1.000000e+01
      vertex   -3.750000e+00 -2.247600e+01 1.000000e+01
    endloop
  endfacet
  facet normal 0.000000e+00 0.000000e+00 -1.000000e+00
    outer loop
      vertex   -3.750000e+00 2.247600e+01 -1.000000e+01
      vertex   3.750000e+00 2.247600e+01 -1.000000e+01
      vertex   -3.750000e+00 -2.247600e+01 -1.000000e+01
    endloop
  endfacet
  facet normal 0.000000e+00 0.000000e+00 -1.000000e+00
    outer loop
      vertex   -3.750000e+00 -2.247600e+01 -1.000000e+01
      vertex   3.750000e+00 2.247600e+01 -1.000000e+01
      vertex   3.750000e+00 -2.247600e+01 -1.000000e+01
    endloop
  endfacet
endsolid
